<svg xmlns="http://www.w3.org/2000/svg" xmlns:xlink="http://www.w3.org/1999/xlink" id="Ebene_1" data-name="Ebene 1" viewBox="0 0 30.58 26.94"><defs><path d="M28.53,18.13,16.8,29.87a1.23,1.23,0,0,1-.93.4,1.25,1.25,0,0,1-.94-.4L3.2,18.13A8.78,8.78,0,0,1,.67,12,8.91,8.91,0,0,1,3.33,5.87a8.52,8.52,0,0,1,12.14,0L16,6.4l.53-.53A8.79,8.79,0,0,1,19.35,4a8.64,8.64,0,0,1,3.32-.67,8.6,8.6,0,0,1,5.86,14.8Z" transform="translate(-0.67 -3.33)" id="icons-feather-heart-fill" /></defs><use xlink:href="#icons-feather-heart-fill" fill-rule="evenodd" /></svg>